<svg xmlns="http://www.w3.org/2000/svg" viewBox="0 0 480 354.07">
    <path d="M90 352.1a90 90 0 1190-90 90.1 90.1 0 01-90 90zm0-160a70 70 0 1070 70 70.08 70.08 0 00-70-70zM390 352.1a90 90 0 1190-90 90.1 90.1 0 01-90 90zm0-160a70 70 0 1070 70 70.08 70.08 0 00-70-70z"/>
    <path d="M167.85 207.99a91.73 91.73 0 0113.08 25.64l-87.51 28.44z" fill="#2fb572"/>
    <path d="M93.42 170.07a91.82 91.82 0 0128.43 4.5l-28.43 87.5z" fill="#3663ad"/>
    <path d="M5.91 290.5a91.82 91.82 0 01-4.49-28.43h92z" fill="#8b1b53"/>
    <path d="M64.98 174.57a91.88 91.88 0 0128.44-4.49v92z" fill="#384199"/>
    <path d="M147.5 187.64a92.69 92.69 0 0120.36 20.35l-74.44 54.08z" fill="#39bfc2"/>
    <path d="M5.91 233.63a91.73 91.73 0 0113.08-25.64l74.43 54.08z" fill="#4b2e8e"/>
    <path d="M39.34 187.64a91.73 91.73 0 0125.64-13.07l28.44 87.51z" fill="#342e88"/>
    <path d="M1.42 262.07a91.88 91.88 0 014.49-28.44l87.51 28.44z" fill="#68297b"/>
    <path d="M18.99 207.99a92.65 92.65 0 0120.35-20.35l54.08 74.43z" fill="#3c2e89"/>
    <path d="M121.85 174.57a91.59 91.59 0 0125.65 13.07l-54.08 74.43z" fill="#3faee3"/>
    <path d="M121.85 349.57a91.82 91.82 0 01-28.43 4.49v-92z" fill="#f89d25"/>
    <path d="M64.98 349.57a91.73 91.73 0 01-25.64-13.08l54.08-74.43z" fill="#e23226"/>
    <path d="M93.42 354.07a91.88 91.88 0 01-28.44-4.5l28.44-87.51z" fill="#ed6023"/>
    <path d="M93.42 262.07l-74.43 54.07A91.59 91.59 0 015.91 290.5z" fill="#ae1f26"/>
    <path d="M180.93 233.63a91.88 91.88 0 014.49 28.44h-92z" fill="#45b549"/>
    <path d="M39.34 336.5a92.69 92.69 0 01-20.35-20.36l74.43-54.07z" fill="#c92027"/>
    <path d="M180.93 290.5a91.59 91.59 0 01-13.08 25.64l-74.43-54.07z" fill="#dbe137"/>
    <path d="M185.42 262.07a91.82 91.82 0 01-4.49 28.43l-87.51-28.43z" fill="#98c93c"/>
    <path d="M147.5 336.5a91.59 91.59 0 01-25.65 13.07l-28.43-87.5z" fill="#fdcc24"/>
    <path d="M167.85 316.14a92.74 92.74 0 01-20.35 20.36l-54.08-74.43z" fill="#fbeb23"/>
    <path d="M90 272.1a10 10 0 01-9.5-13.17l60-180a10 10 0 019.49-6.83h190a10 10 0 010 20H157.21L99.5 265.26a10 10 0 01-9.5 6.84z"/>
    <path d="M230.01 242.1a10 10 0 01-8.77-5.18l-110-200a10 10 0 1117.52-9.64l110 200a10 10 0 01-8.75 14.82z"/>
    <path d="M79.99 42.1a10 10 0 01-1.23-19.93l80-10a10.002 10.002 0 012.48 19.85l-80 10a10.63 10.63 0 01-1.25.08zM240 302.1a40 40 0 1140-40 40 40 0 01-40 40zm0-60a20 20 0 1020 20 20 20 0 00-20-20z"/>
    <path d="M210 272.1H90a10 10 0 010-20h120a10 10 0 010 20zM259.99 242.1a10 10 0 01-7.73-16.34l90-110a10.002 10.002 0 0115.48 12.67l-90 110a10 10 0 01-7.75 3.67z"/>
    <path d="M389.99 272.1a10 10 0 01-9.63-7.33l-50-180a10 10 0 01.79-7.33c12-22.75 15.05-39.9 8.71-48.28-9.26-12.24-38.34-9.28-47.79-7.28a10.002 10.002 0 01-4.14-19.57c5-1.06 49.41-9.64 67.88 14.78 11.16 14.75 9.43 37-5.13 66.09l48.95 176.24a10 10 0 01-9.64 12.68z"/>
</svg>
