<svg xmlns="http://www.w3.org/2000/svg" width="1334.667" height="1334.667" version="1.0" viewBox="0 0 1001 1001"><path d="M627.8 131.5c-.2.2-3 .6-6.3.9-24.3 2.6-30.7 5.2-35.4 14.2-5.7 11 .1 25.7 11.6 29.5 3.3 1.1 11.3.8 18.4-.6 11.4-2.2 43.1-3.1 52.1-1.5 2.4.5 6.3 1.1 8.7 1.5 6.4.9 18 5.3 22.8 8.6 2.2 1.6 5.7 4.8 7.7 7.1 12.1 14.1 9.1 44.7-8.4 83l-3 6.8H320.2l-3.5-6.3c-1.9-3.4-4.9-8.9-6.7-12.2-1.8-3.2-6.5-11.8-10.5-19-4-7.1-8.7-15.7-10.5-19-1.8-3.3-4.8-8.8-6.7-12.3-2-3.5-3.3-6.5-3.1-6.8.3-.2 2.3-.6 4.4-.9 2.1-.2 5.3-.6 6.9-.9 6.5-1 14-2 14.6-1.8.4.1 3.4-.3 6.7-.8 3.3-.6 8.4-1.2 11.3-1.5 3-.3 6.6-.8 8-1 1.4-.3 4.2-.7 6.2-.9 11.5-1.5 19.7-13.8 16.7-25.3-1.5-6-5.9-11.5-11.2-14.1-3.5-1.7-5.7-2-11.8-1.6-4.1.2-8.4.6-9.5.8-1.1.2-4.9.7-8.5 1.1-3.6.4-7.4.9-8.5 1.1-1.1.2-4.7.6-8 .9-3.3.3-6.7.8-7.5 1-.8.2-4.4.7-8 1-3.6.3-7.2.8-8 1-.8.2-4.4.7-8 1-3.6.4-7.2.8-8 1-.8.1-4.4.6-8 1-3.6.4-7.2.9-8 1-.8.2-4.4.6-8 1-3.6.3-7.2.8-8 1-.8.2-4.4.7-8 1-3.6.4-7.4.9-8.5 1.1-1.1.2-4.5.6-7.6.9-3.1.3-6.9.7-8.5.9-1.6.3-5.1.7-7.9 1.1-2.7.4-6.1.8-7.5 1-1.4.2-5.2.7-8.4 1.1-11.3 1.2-18.1 5.9-21.1 14.4-4.9 13.5 5.1 27.5 19.5 27.5 4.8 0 14.9-1 20.2-2 .9-.2 4.8-.7 8.5-1 3.7-.4 7-.9 7.3-1 .3-.2 4.1-.6 8.5-1s8.2-.9 8.5-1c.3-.2 3.5-.6 7.1-1l6.5-.7 10.9 19.9c6 10.9 11.9 21.6 13.2 23.8 1.2 2.2 2.6 4.7 3 5.5.4.8 6.7 12.4 14.1 25.8l13.4 24.2-2.7 7.8c-1.5 4.2-2.8 8.4-3 9.2-.2.8-5.6 17-12 36s-11.8 35.2-12 36c-.2.8-3.4 10.3-7 21-3.7 10.7-6.8 20.2-7 21-.2.8-2.5 7.6-5 15-2.6 7.4-4.8 14.2-5 15-.2.8-1.6 5-3.1 9.3l-2.7 7.7-4.1-.6c-13.3-2-41.7-2.6-51.6-1-1.4.2-4.8.7-7.5 1-6.2.8-20 4-28.2 6.6-12 3.7-37.4 15.1-38.1 17.1-.2.5-.8.9-1.3.9s-4.1 2.1-8.1 4.6c-31 19.8-57.1 49.2-71.9 81.1-6.6 14.3-13.1 34.8-14.5 45.6-.3 2.3-.7 4.9-1 5.6-1.1 3.3-1.9 17.5-1.8 31.6.3 33.3 10 66.5 28.1 95.7 23.1 37.3 62.8 68.4 105.8 82.7 21.6 7.1 37.9 9.7 62 9.5 14.7-.1 20.3-.5 31.7-2.5 9.3-1.6 10-1.8 17.3-3.9 3.9-1.1 7.7-2.2 8.5-2.4 9.6-2.5 26.5-10.3 40.8-18.9 17.5-10.4 39-29.4 50.7-44.7 2.7-3.6 5.3-7 5.8-7.5 2.5-3 9.8-15.2 13.9-23 9.8-19 16.7-40.1 19.3-59 .3-2.2.7-4.9.9-6 .3-1.9 1.2-2 17.2-2.3l17-.2 2.2 6.7c6.3 19.5 22.7 37.7 42.8 47.7 12.9 6.3 32.5 9.6 45.6 7.5 2.9-.5 6.7-1.1 8.3-1.3 7.6-1.3 20.9-7.1 29.5-12.9 11.4-7.8 22.5-21.2 28.7-34.7 8-17.4 9.1-42 2.9-60.4-2.5-7.2-7.3-16.6-12-23l-4.2-5.9 34.4-42.1c19-23.2 35.9-43.9 37.7-46.1 1.9-2.2 10.1-12.3 18.5-22.5 8.3-10.2 15.7-19.2 16.4-20.1.8-.9 12.7-15.4 26.4-32.3l25.1-30.6 1 3.3c.6 1.7 1.9 6.6 3 10.8 1 4.1 2.9 10.8 4.1 14.8 1.2 4.1 2.3 8.1 2.5 9 .3 1.7 5.7 20.8 8.5 30.6l1.8 6-10.2 5c-20.1 10-35.8 21-50.6 35.4-37.7 36.8-57.5 85.2-56.5 138.1.3 17.4 1.9 28.7 6.6 46 11.8 44.3 42.4 85 82.6 109.9 9.4 5.8 26.8 14.2 34.3 16.5 3 1 6.4 2.1 7.5 2.6 6 2.5 25.8 6.6 37 7.7 14 1.4 39.2.7 49-1.3 1.1-.3 3.6-.7 5.5-1 17.7-2.8 44.7-13.1 61.7-23.6 36.6-22.6 63.4-54.8 78.7-94.5 3.8-9.6 8.4-26.1 9.2-32.8.3-2.2.7-4.6.9-5.3.8-2.3 1.9-19.5 1.9-29.2 0-22.3-4.1-44.5-11.9-65-16.4-42.9-48-78.7-88.5-100.2-17.8-9.4-40.8-16.9-59.5-19.3-2.2-.3-6.7-.9-10-1.3-10.2-1.3-39.6-.5-45.6 1.3-1.5.5-4.6-9.5-18-58.5-1-3.6-2.9-10.6-4.3-15.5-1.4-5-4.1-14.9-6-22-2-7.2-4.5-16.1-5.7-19.9-1.2-3.7-2.2-7.3-2.3-8-.6-2.5-2-7.8-5.8-21.1-2.2-7.7-4.1-14.9-4.4-16-.2-1.1-1.9-7.3-3.8-13.9l-3.4-11.9 4-8.6c6.3-13.5 13.6-32.8 16.4-43.6 3.6-13.6 4.7-22.2 4.8-36.5 0-16.1-.9-21.4-5.3-32.9-7.9-20.7-26.3-36.7-52-45.1-8.8-2.8-9.9-3.1-25.1-5.5-7-1.1-45.1-1.9-46.2-1zM693 323.4c0 .2 3.1 11.6 6.9 25.3 3.8 13.6 7.1 26 7.5 27.4.5 2.5-6.5 11.6-46 59.4l-18 22c-8 9.9-16.3 20-18.4 22.5-2 2.5-24.3 29.7-49.4 60.5-25.2 30.8-46.2 56.4-46.6 56.9-.4.4-3.2.1-6.2-.7-7.3-2.1-13.9-3-23.1-3.1l-7.8-.1-3.8-7c-6-11.1-10-18.4-15.1-27.5-2.6-4.7-6.3-11.4-8.2-15-2-3.6-4.7-8.5-6.1-11-1.3-2.5-11.1-20.3-21.7-39.5-10.6-19.3-24.5-44.5-30.8-56-6.3-11.6-23.1-42-37.2-67.8L343.2 323h174.9c96.2 0 174.9.2 174.9.4zm-363.3 62.1c9.7 17.7 38.7 70.5 53.3 97 12.1 21.9 30.4 55.4 34 62 2.3 4.4 4.6 8.4 5 9 .4.5 2.4 4.1 4.5 8 2.1 3.8 8.7 15.9 14.7 26.8l10.9 19.8-8.9 8.7c-5 4.8-10.6 11.3-12.7 14.5-4.2 6.7-9 16.9-10 21.5l-.7 3.2H403c-18.8 0-17.4.6-18.4-7.5-.4-3.5-.9-6.2-3.1-17-3.3-15.8-13.7-40.1-24.8-57.7-9.2-14.6-25.1-32.8-38.2-43.8-11.2-9.4-26.6-19.2-40.2-25.7l-9.1-4.3 10.9-32.8c33.7-101.3 35.4-106.1 36.5-104.9.6.7 6.5 11.1 13.1 23.2zm502.3 147c24 4.2 44.4 11.8 60.5 22.6 46.1 30.7 71.2 84 65.1 137.9-1.2 10.5-1.3 11.1-3.5 19.9-7.3 28.3-24.1 55.5-45.5 73.6-3.2 2.8-6.4 5.5-7.1 6.2-2.8 2.7-18.5 12.2-26 15.7-11.4 5.5-25.9 10.2-37 12.1-7.5 1.3-11.4 1.6-22 2-15.6.4-27.3-1-42.5-5.2-46.4-12.8-84.9-49.6-99.5-95.1-5.2-16.2-6.9-27.6-7-45.2 0-22.5 4.1-41.4 13.2-60.8 3.3-7 11.8-22 13.2-23.2.3-.3 1.9-2.3 3.6-4.5 5.3-7.2 16.8-19 25-25.6 9.6-7.7 30.2-19.6 31.5-18.2.4.4 1.5 3.5 2.3 6.8 3.6 14.1 35.9 129.4 37.3 133.2 3.7 10.1 16.9 16 26.7 12 4.3-1.8 9.4-6.3 11.2-9.7.8-1.5 1.7-4.8 2-7.2.6-4.7 0-7.3-27.2-104.8-9-32.5-11.3-41-11.3-42 0-.5 2.1-1 4.8-1.2 6.8-.5 28.1 0 32.2.7zm-319.5 105c5.8 1.7 12.6 5.8 17.3 10.5 19.8 19.8 14.2 53.6-10.9 65.9-12.8 6.2-24.8 6.2-37.2-.1-18-9-26.7-29.7-20.8-48.9 6.8-21.9 29.3-33.8 51.6-27.4z"/></svg>